PathFileType	4	(X/Y/Z)	/Users/niels/Desktop/University/Third Semester/Perception and Action/Exam/Gymnastics Motion Tracking/Code for Gym Tracking/Analyzed Data/Webcam_Backflip/id2005_1_trajectory_Sports2D/id2005_1_trajectory_Sports2D_px_person00.trc
DataRate	CameraRate	NumFrames	NumMarkers	Units	OrigDataRate	OrigDataStartFrame	OrigNumFrames
29.77272727272727	29.77272727272727	22	22	m	29.77272727272727	52	132
Frame#	Time	Hip			RHip			RKnee			RAnkle			RBigToe			RSmallToe			RHeel			LHip			LKnee			LAnkle			LBigToe			LSmallToe			LHeel			Neck			Head			Nose			RShoulder			RElbow			RWrist			LShoulder			LElbow			LWrist		
		X1	Y1	Z1	X2	Y2	Z2	X3	Y3	Z3	X4	Y4	Z4	X5	Y5	Z5	X6	Y6	Z6	X7	Y7	Z7	X8	Y8	Z8	X9	Y9	Z9	X10	Y10	Z10	X11	Y11	Z11	X12	Y12	Z12	X13	Y13	Z13	X14	Y14	Z14	X15	Y15	Z15	X16	Y16	Z16	X17	Y17	Z17	X18	Y18	Z18	X19	Y19	Z19	X20	Y20	Z20	X21	Y21	Z21	X22	Y22	Z22
52	1.7465648854961833	0.9048290625777815	-1.1079176630245278	0.0			0.0			0.0			0.0			0.0			0.0			0.0			0.0	1.4351756628272594	-0.9331760824913586	0.0			0.0			0.0			0.0			0.0	0.9058434422698863	-0.7272738256812078	0.0	0.8980432975667473	-0.17508044000697748	0.0	0.9221249937106676	-0.3936310143193872	0.0	0.44604577095782577	-0.9577950036493225	0.0	0.17441892794647548	-1.0709254973273112	0.0			0.0	1.3702862547895456	-0.8920086831224038	0.0	1.5782225909254497	-1.077181674070476	0.0			0.0
53	1.7801526717557252	0.9049759833633633	-1.1080610371917232	0.0			0.0			0.0			0.0			0.0			0.0			0.0			0.0	1.4352062337760543	-0.932301545165141	0.0			0.0			0.0			0.0			0.0	0.9054247434175312	-0.7296710730588097	0.0	0.896631946948749	-0.17513128562830854	0.0	0.9208479936447994	-0.39447089217624987	0.0	0.4469657754875906	-0.9567316282135722	0.0	0.15781650824650728	-1.0696014875366586	0.0			0.0	1.3686536301679513	-0.892567605472977	0.0	1.5750292377155541	-1.075819729739885	0.0			0.0
54	1.8137404580152672	0.9051270505745749	-1.1081698668613966	0.0			0.0			0.0			0.0			0.0			0.0			0.0			0.0	1.4352253516370188	-0.9317551312323137	0.0			0.0			0.0			0.0			0.0	0.9052624462936116	-0.7316703298282272	0.0	0.8955046552690393	-0.17541626704650318	0.0	0.9200791027584444	-0.39466622147143204	0.0	0.44779944218909523	-0.955153015941443	0.0	0.13923758084351867	-1.0682347166607762	0.0			0.0	1.36683610306624	-0.8924554301344192	0.0	1.5722772216967327	-1.074106003997717	0.0			0.0
55	1.8473282442748094	0.90528859146751	-1.1082215032138663	0.0			0.0			0.0			0.0			0.0			0.0			0.0			0.0	1.4352328920008193	-0.9314932972880473	0.0			0.0			0.0			0.0			0.0	0.9050229907978145	-0.7328789056090581	0.0	0.8946511608223237	-0.17603965013891287	0.0	0.9196352879857246	-0.3940338078161545	0.0	0.4481926845002686	-0.9535961280254561	0.0	0.12431032590656893	-1.0672239535398171	0.0			0.0	1.3649343171091621	-0.8919253002301881	0.0	1.5694533456943716	-1.0725636061716377	0.0			0.0
56	1.8809160305343513	0.9054876935840687	-1.1082167792397517	0.0			0.0			0.0			0.0			0.0			0.0			0.0			0.0	1.4352306538616728	-0.9314225600385165	0.0			0.0			0.0			0.0			0.0	0.9044960280775158	-0.7329104026270173	0.0	0.8940406718051275	-0.17707460985621254	0.0	0.9193258192388294	-0.3925333382789381	0.0	0.44792119054253776	-0.9524903785977094	0.0	0.11592123721235742	-1.066905748543391	0.0			0.0	1.3631063067945652	-0.8913163462966106	0.0	1.5664383113469136	-1.0716358566363235	0.0			0.0
57	1.9145038167938933	0.905741326085279	-1.1081708294811188	0.0			0.0			0.0			0.0			0.0			0.0			0.0			0.0	1.4352208711280285	-0.9314539179881776	0.0			0.0			0.0			0.0			0.0	0.9037523390028221	-0.7315080174221865	0.0	0.8935046138268701	-0.1786728124368631	0.0	0.9189793733703929	-0.3904011799488255	0.0	0.44710419023307146	-0.9519532269756091	0.0	0.11263330177379487	-1.0673508119556339	0.0			0.0	1.3614291289119698	-0.8908161208959408	0.0	1.5631734008498144	-1.071414102788291	0.0			0.0
58	1.9480916030534352	0.9060197288895374	-1.1081125885756922	0.0			0.0			0.0			0.0			0.0			0.0			0.0			0.0	1.4352064103594504	-0.9315231752969727	0.0			0.0			0.0			0.0			0.0	0.9029424472227128	-0.7287834483197105	0.0	0.8928098894442122	-0.18095375473142505	0.0	0.9183700967891743	-0.3880656249425376	0.0	0.4459898281646043	-0.952011072873983	0.0	0.11242054018829789	-1.0683382139510522	0.0			0.0	1.3599873877236257	-0.890527657386002	0.0	1.5599857705070523	-1.0717687858332756	0.0			0.0
59	1.9816793893129772	0.90620430528593	-1.10809034363216	0.0			0.0			0.0			0.0			0.0			0.0			0.0			0.0	1.4351922433113675	-0.9315910722846118	0.0			0.0			0.0			0.0			0.0	0.9020617720200717	-0.7254096500310885	0.0	0.8918541049360595	-0.18371265702121148	0.0	0.9172215652769127	-0.38599984538629256	0.0	0.44469856071893477	-0.9527148062343813	0.0	0.1162963723569587	-1.0694620646788755	0.0			0.0	1.3588906981238238	-0.8906368473792244	0.0	1.5577219427267757	-1.0725239272488312	0.0			0.0
60	2.0152671755725193	0.9060489797534035	-1.10817774778222	0.0			0.0			0.0			0.0			0.0			0.0			0.0			0.0	1.4351875588771215	-0.931634532921766	0.0			0.0			0.0			0.0			0.0	0.9010091306781087	-0.7225182325663645	0.0	0.890724658054979	-0.18635997880503882	0.0	0.9153680872055984	-0.3846109285054022	0.0	0.44322341365349244	-0.9540842882657727	0.0	0.12670123652689222	-1.0702286572593214	0.0			0.0	1.3582052403378488	-0.891411448931459	0.0	1.557173114534553	-1.0734057285776202	0.0			0.0
61	2.048854961832061	0.9051693447484814	-1.1084712485044232	0.0			0.0			0.0			0.0			0.0			0.0			0.0			0.0	1.4352074513521562	-0.931636725124886	0.0			0.0			0.0			0.0			0.0	0.8997714437181588	-0.7211399286076415	0.0	0.8896064827903221	-0.18826971937135403	0.0	0.9128764048045448	-0.38406780606690816	0.0	0.44157023447006777	-0.956071228519967	0.0	0.14367554100268892	-1.0703707917211676	0.0			0.0	1.3579358588480093	-0.8929714444777581	0.0	1.5585080350252738	-1.074160277307955	0.0			0.0
62	2.0824427480916032	0.9031039524329879	-1.1090661677199765	0.0			0.0			0.0			0.0			0.0			0.0			0.0			0.0	1.4352724155538463	-0.9315808801441738	0.0			0.0			0.0			0.0			0.0	0.898493957893002	-0.7216002492588052	0.0	0.8886631819906603	-0.18917923489843116	0.0	0.9100565192061542	-0.3841245309186973	0.0	0.43990444808381934	-0.9583821479344122	0.0	0.16382362329530617	-1.0701227740811459	0.0			0.0	1.358023999440216	-0.8949939508456546	0.0	1.5611242369129668	-1.0747146968447692	0.0			0.0
63	2.116030534351145	0.8995101422373937	-1.1099965330854806	0.0			0.0			0.0			0.0			0.0			0.0			0.0			0.0	1.4354030312250161	-0.9314513846410045	0.0			0.0			0.0			0.0			0.0	0.8973870629578264	-0.7234732459798711	0.0	0.8879010453233209	-0.18923895809665173	0.0	0.9073127560801912	-0.3842936897705943	0.0	0.438552434957463	-0.9604139715753002	0.0	0.18249077545337392	-1.0699035747226195	0.0			0.0	1.3583612263234615	-0.8967885711601362	0.0	1.564175079313417	-1.0750276931212595	0.0			0.0
64	2.149618320610687	0.8945585186528341	-1.1111271549111987	0.0			0.0			0.0			0.0			0.0			0.0			0.0			0.0	1.4356066909095402	-0.931245006560262	0.0			0.0			0.0			0.0			0.0	0.8965943717533157	-0.7260896392370888	0.0	0.8870961904864807	-0.18877300461290875	0.0	0.9048851695776814	-0.38428511247561786	0.0	0.4378068193344191	-0.9616596887539856	0.0	0.19664787288478303	-1.0698524333363817	0.0			0.0	1.358847804350745	-0.8978100877137503	0.0	1.5676039103230468	-1.0750103195729903	0.0			0.0
65	2.1832061068702293	0.8892285786454631	-1.112115039686933	0.0			0.0			0.0			0.0			0.0			0.0			0.0			0.0	1.4358539121339464	-0.9309940185105663	0.0			0.0			0.0			0.0			0.0	0.8961633752246178	-0.7289490047997352	0.0	0.8859952753456991	-0.18805454484411613	0.0	0.9028014500552664	-0.38418839966807095	0.0	0.43775799756561506	-0.9620797795739939	0.0	0.20582203316668427	-1.0698304919982828	0.0			0.0	1.3594410517561328	-0.8980137346895907	0.0	1.572522587935096	-1.0746463396683745	0.0			0.0
66	2.216793893129771	0.8848358616435638	-1.112650385936086	0.0			0.0			0.0			0.0			0.0			0.0			0.0			0.0	1.4360450189565073	-0.9307997496029807	0.0			0.0			0.0			0.0			0.0	0.8960513833767866	-0.731629826148484	0.0	0.8846346695616354	-0.1872299995166644	0.0	0.9009910832726044	-0.384299486721697	0.0	0.4382036539255709	-0.96201731508177	0.0	0.2110594372651246	-1.0696945280869383	0.0			0.0	1.360172897506109	-0.8977706888194728	0.0	1.5805785290343697	-1.074054866747813	0.0			0.0
67	2.250381679389313	0.8820811968535341	-1.1127703765320285	0.0			0.0			0.0			0.0			0.0			0.0			0.0			0.0	1.4359753306276346	-0.9308679153438015	0.0			0.0			0.0			0.0			0.0	0.8961491387830632	-0.73363181426633	0.0	0.8832873532218816	-0.18631503818962888	0.0	0.8993152196385823	-0.3848752876061724	0.0	0.4387094694056568	-0.9619020520038504	0.0	0.21375262971085177	-1.0694486977507454	0.0			0.0	1.3611374071968125	-0.897612164414771	0.0	1.59272833822913	-1.0734851881722414	0.0			0.0
68	2.283969465648855	0.880797880297527	-1.1127836887596518	0.0			0.0			0.0			0.0			0.0			0.0			0.0			0.0	1.4353195063663327	-0.9315247392896813	0.0			0.0			0.0			0.0			0.0	0.8963479640599534	-0.7345101484232721	0.0	0.8821414258334935	-0.185322094377851	0.0	0.8976453244766657	-0.38595678504393327	0.0	0.4389644476487145	-0.9619792001417885	0.0	0.21502108721030866	-1.0691297720022848	0.0			0.0	1.3623704568333401	-0.8979076687881424	0.0	1.6073842071495783	-1.0731626568800887	0.0			0.0
69	2.317557251908397	0.8804502617772874	-1.1129412150100308	0.0			0.0			0.0			0.0			0.0			0.0			0.0			0.0	1.4336725251198528	-0.9331761639729866	0.0			0.0			0.0			0.0			0.0	0.8965649146546066	-0.7340509835082809	0.0	0.8812154067243131	-0.18450999098236254	0.0	0.8960069723928549	-0.3873069881578122	0.0	0.4389656151275383	-0.962252486268531	0.0	0.21548927771013549	-1.068717549389335	0.0			0.0	1.363736131388964	-0.8985816963736768	0.0	1.619666517891448	-1.0730941086546555	0.0			0.0
70	2.351145038167939	0.8805559296477096	-1.113294304909229	0.0			0.0			0.0			0.0			0.0			0.0			0.0			0.0	1.4307010650918557	-0.9361562138070583	0.0			0.0			0.0			0.0			0.0	0.8967489676140086	-0.732334784544035	0.0	0.8804963550364694	-0.1842975086374381	0.0	0.894567016684983	-0.3885478792642169	0.0	0.4387495005749437	-0.9626757927683078	0.0	0.21535517537979232	-1.0683333870322567	0.0			0.0	1.3650107048069031	-0.8992379446889964	0.0	1.6248821228008417	-1.073215370733574	0.0			0.0
71	2.384732824427481	0.8808012323606932	-1.1137593941621362	0.0			0.0			0.0			0.0			0.0			0.0			0.0			0.0	1.426463365288338	-0.9404062879188588	0.0			0.0			0.0			0.0			0.0	0.8969087987472132	-0.7298344259200714	0.0	0.880073939549987	-0.18477166017940352	0.0	0.8934876281426615	-0.38939318892296565	0.0	0.4382276937598631	-0.9632922583934542	0.0	0.21464480528803193	-1.06825593494749	0.0			0.0	1.3660377773300576	-0.8996180963713665	0.0	1.62325350126496	-1.073648835968197	0.0			0.0
72	2.418320610687023	0.8810277386708977	-1.1142135961641553	0.0			0.0			0.0			0.0			0.0			0.0			0.0			0.0	1.4216821713689232	-0.9452014417250921	0.0			0.0			0.0			0.0			0.0	0.8970913227285777	-0.7274733667865165	0.0	0.8801724561071246	-0.18543401104214735	0.0	0.8928408711267385	-0.3897614423255758	0.0	0.43735458822335077	-0.9641674705673152	0.0	0.2134337690149928	-1.0685038417637194	0.0			0.0	1.3668048278969023	-0.8998034546047454	0.0	1.6183971338518008	-1.074546335710831	0.0			0.0
73	2.451908396946565	0.8811817937404991	-1.1145646025131561	0.0			0.0			0.0			0.0			0.0			0.0			0.0			0.0	1.4174444702263918	-0.9494515056793547	0.0			0.0			0.0			0.0			0.0	0.8973024885394391	-0.7262676362312406	0.0	0.8809975253543857	-0.18555888865152242	0.0	0.8926485249203098	-0.38974453137762644	0.0	0.43625144538735483	-0.9652327896790607	0.0	0.2118150523238168	-1.0686733595631968	0.0			0.0	1.3673910876302058	-0.8999856401561667	0.0	1.6121138974555758	-1.0757305695998909	0.0			0.0
